<svg width="104.000000" height="24.000000" viewBox="0 0 104 24" fill="none" xmlns="http://www.w3.org/2000/svg" xmlns:xlink="http://www.w3.org/1999/xlink">
	<desc>
			Created with Pixso.
	</desc>
	<defs/>
	<path id="Path" d="M22.67 0L1.32 0C0.59 0 0 0.59 0 1.32L0 22.67C0 23.4 0.59 24 1.32 24L12.82 24L12.82 14.7L9.69 14.7L9.69 11.08L12.82 11.08L12.82 8.41C12.82 5.31 14.71 3.62 17.47 3.62C18.8 3.62 19.94 3.72 20.27 3.76L20.27 7L18.35 7C16.85 7 16.56 7.72 16.56 8.77L16.56 11.08L20.14 11.08L19.68 14.7L16.56 14.7L16.56 24L22.67 24C23.4 24 24 23.4 24 22.67L24 1.32C24 0.59 23.4 0 22.67 0Z" fill="#FFFFFF" fill-opacity="1.000000" fill-rule="nonzero"/>
	<path id="Path" d="M52 0C45.37 0 40 5.37 40 12C40 17.08 43.16 21.42 47.62 23.17C47.52 22.22 47.42 20.76 47.66 19.73C47.88 18.79 49.07 13.76 49.07 13.76C49.07 13.76 48.71 13.04 48.71 11.98C48.71 10.31 49.68 9.07 50.88 9.07C51.91 9.07 52.4 9.84 52.4 10.76C52.4 11.79 51.75 13.33 51.41 14.75C51.12 15.95 52.01 16.92 53.18 16.92C55.32 16.92 56.96 14.67 56.96 11.43C56.96 8.55 54.89 6.54 51.94 6.54C48.53 6.54 46.53 9.1 46.53 11.75C46.53 12.78 46.92 13.89 47.42 14.49C47.52 14.61 47.53 14.71 47.5 14.83L47.17 16.19C47.12 16.41 47 16.46 46.77 16.36C45.27 15.66 44.33 13.47 44.33 11.71C44.33 7.92 47.08 4.44 52.26 4.44C56.42 4.44 59.66 7.41 59.66 11.38C59.66 15.51 57.05 18.84 53.43 18.84C52.22 18.84 51.07 18.21 50.68 17.46L49.93 20.31C49.66 21.36 48.93 22.66 48.44 23.46C49.57 23.81 50.76 24 52 24C58.62 24 64 18.62 64 12C64 5.37 58.62 0 52 0Z" fill="#FFFFFF" fill-opacity="1.000000" fill-rule="nonzero"/>
	<path id="Path" d="M104 4.55C103.11 4.94 102.16 5.21 101.17 5.33C102.18 4.72 102.97 3.75 103.33 2.6C102.38 3.17 101.33 3.58 100.21 3.8C99.31 2.84 98.03 2.24 96.61 2.24C93.43 2.24 91.1 5.21 91.81 8.29C87.72 8.08 84.1 6.12 81.67 3.14C80.38 5.36 81 8.25 83.19 9.72C82.38 9.69 81.62 9.47 80.96 9.1C80.91 11.38 82.54 13.52 84.91 13.99C84.22 14.18 83.46 14.22 82.68 14.08C83.31 16.03 85.13 17.45 87.29 17.5C85.22 19.12 82.61 19.84 80 19.54C82.17 20.93 84.76 21.75 87.54 21.75C96.68 21.75 101.85 14.03 101.54 7.1C102.5 6.41 103.34 5.54 104 4.55Z" fill="#FFFFFF" fill-opacity="1.000000" fill-rule="nonzero"/>
</svg>
